<svg width="60" height="60" viewBox="0 0 60 60" fill="none" xmlns="http://www.w3.org/2000/svg">
<circle cx="30" cy="30" r="30" fill="white"/>
<g clip-path="url(#clip0_799_1470)">
<path d="M47.9943 21.1879C47.9943 20.0809 47.9009 18.9784 47.6366 17.9006C47.1618 15.9375 46.0424 14.4379 44.3673 13.3365C43.5056 12.774 42.5572 12.4286 41.5492 12.2464C40.7751 12.1109 39.9916 12.0365 39.2058 12.0236C39.1473 12.018 39.0832 12.0056 39.0179 12H20.9831C20.7547 12.018 20.5263 12.0292 20.2979 12.0405C19.1786 12.1046 18.0659 12.2216 17.0107 12.6435C15.0071 13.4344 13.5592 14.817 12.7154 16.8094C12.4229 17.4833 12.2756 18.1976 12.1709 18.9244C12.0832 19.5105 12.0359 20.1023 12.0191 20.694C12.0191 20.7413 12.0078 20.7874 12.0078 20.8346V39.1687L12.0427 39.8021C12.1192 41.0272 12.2767 42.24 12.7931 43.365C13.7662 45.4924 15.4008 46.8919 17.6452 47.5658C18.2718 47.7593 18.9288 47.847 19.5847 47.9055C20.4172 47.9876 21.2486 47.9989 22.0811 47.9989H38.6276C39.4128 47.9989 40.1981 47.946 40.9833 47.847C42.2197 47.6884 43.3796 47.325 44.4292 46.6343C45.6716 45.8294 46.6513 44.6784 47.2473 43.3234C47.5286 42.69 47.6872 42.0173 47.8042 41.3366C47.9741 40.323 48.0089 39.297 48.0089 38.2721C48.0033 32.5763 48.0089 26.8815 48.0033 21.1856L47.9943 21.1879ZM38.3609 27.1695V35.7364C38.3609 36.363 38.2732 36.9784 37.9919 37.5465C37.5588 38.4307 36.8557 38.9876 35.9118 39.2576C35.3889 39.4075 34.8499 39.494 34.3064 39.5153C33.623 39.5556 32.9485 39.3433 32.4114 38.9187C31.8743 38.494 31.5122 37.8867 31.3938 37.2124C31.2854 36.6056 31.3791 35.9801 31.6606 35.4318C31.9421 34.8834 32.3957 34.4427 32.9519 34.1771C33.4323 33.9431 33.9543 33.8025 34.4752 33.6967C35.0433 33.5741 35.6114 33.4627 36.1739 33.3334C36.5902 33.24 36.8591 32.988 36.9412 32.5594C36.9648 32.466 36.9704 32.3659 36.9704 32.2725V24.105C36.9684 24.0118 36.9548 23.9192 36.9299 23.8294C36.8714 23.601 36.7072 23.466 36.4732 23.4772C36.2324 23.4885 35.9984 23.5301 35.7644 23.5774C34.6214 23.8001 33.4796 24.0285 32.3422 24.2625L26.7937 25.3819C26.7701 25.3875 26.7408 25.3999 26.7172 25.3999C26.3009 25.5169 26.1547 25.7048 26.1367 26.1379C26.1311 26.202 26.1367 26.2673 26.1367 26.3314C26.1311 30.234 26.1367 34.1366 26.1311 38.0381C26.1311 38.6715 26.0602 39.2925 25.8093 39.8775C25.3931 40.8383 24.6551 41.4424 23.6594 41.7292C23.1331 41.8825 22.5896 41.969 22.0417 41.9869C20.6062 42.0398 19.4103 41.0846 19.1651 39.6727C18.9536 38.4544 19.5104 37.1415 20.8931 36.5554C21.4319 36.3326 21.9888 36.21 22.5569 36.093L23.8462 35.8298C24.4199 35.7071 24.7192 35.3438 24.7484 34.7576V21.2104C24.7484 21.0225 24.7721 20.8357 24.8126 20.6535C24.9183 20.226 25.2232 19.9796 25.6327 19.8795C26.0141 19.7794 26.4067 19.7096 26.7926 19.6275C27.8939 19.4048 28.9897 19.182 30.0911 18.9649L33.4953 18.273C34.5033 18.0739 35.5046 17.8691 36.5126 17.67C36.8411 17.6059 37.1752 17.535 37.5082 17.5114C37.9706 17.4709 38.2934 17.7634 38.3407 18.2325C38.3519 18.3439 38.3587 18.4552 38.3587 18.5666V27.1627L38.3609 27.1695Z" fill="#545454"/>
</g>
<defs>
<clipPath id="clip0_799_1470">
<rect width="36" height="36" fill="white" transform="translate(12 12)"/>
</clipPath>
</defs>
</svg>
