<svg width="60" height="60" viewBox="0 0 60 60" fill="none" xmlns="http://www.w3.org/2000/svg">
<circle cx="30" cy="30" r="30" fill="white"/>
<path d="M48 18.534C46.6761 19.1312 45.2539 19.5347 43.7588 19.7171C45.3015 18.7774 46.4557 17.2984 47.0059 15.5561C45.5565 16.4325 43.9702 17.0494 42.316 17.38C41.2036 16.1708 39.7302 15.3694 38.1245 15.1001C36.5189 14.8308 34.8708 15.1086 33.4361 15.8906C32.0015 16.6725 30.8606 17.9148 30.1905 19.4245C29.5204 20.9342 29.3587 22.6269 29.7305 24.2397C26.7937 24.0896 23.9207 23.3125 21.298 21.9589C18.6752 20.6053 16.3614 18.7054 14.5066 16.3825C13.8725 17.4962 13.5078 18.7874 13.5078 20.1626C13.5071 21.4006 13.8066 22.6196 14.3796 23.7115C14.9527 24.8034 15.7816 25.7344 16.7929 26.4219C15.6201 26.3839 14.4732 26.0613 13.4475 25.4809V25.5777C13.4474 27.3141 14.0374 28.9969 15.1174 30.3408C16.1973 31.6847 17.7007 32.6069 19.3725 32.9508C18.2845 33.2505 17.1438 33.2947 16.0366 33.0799C16.5083 34.5739 17.4271 35.8803 18.6644 36.8163C19.9016 37.7523 21.3954 38.271 22.9367 38.2997C20.3204 40.3906 17.0892 41.5248 13.7631 41.5198C13.1739 41.5199 12.5852 41.4849 12 41.4149C15.3763 43.6248 19.3064 44.7976 23.3204 44.7931C36.908 44.7931 44.3359 33.3365 44.3359 23.4004C44.3359 23.0776 44.328 22.7515 44.3138 22.4287C45.7586 21.365 47.0058 20.0478 47.9968 18.5388L48 18.534Z" fill="#545454"/>
</svg>
