<svg width="60" height="60" viewBox="0 0 60 60" fill="none" xmlns="http://www.w3.org/2000/svg">
<circle cx="30" cy="30" r="30" fill="white"/>
<path d="M29.9925 12C20.0715 12 12 20.073 12 29.994C12 39.924 20.0715 48 29.9925 48C39.9225 48 48 39.9225 48 29.994C48 20.073 39.9225 12 29.9925 12ZM20.862 36.606C22.9221 35.9749 25.0644 35.6524 27.219 35.649C30.84 35.649 34.4145 36.567 37.557 38.304C37.7445 38.406 37.914 38.742 37.992 39.162C38.067 39.582 38.037 40.0125 37.914 40.236C37.856 40.3423 37.7775 40.4361 37.6831 40.5118C37.5886 40.5876 37.4801 40.6438 37.3637 40.6773C37.2473 40.7108 37.1255 40.7208 37.0052 40.7069C36.8849 40.6929 36.7686 40.6552 36.663 40.596C34.3548 39.3298 31.8158 38.54 29.1966 38.2736C26.5774 38.0071 23.9314 38.2695 21.4155 39.045C21.3 39.0823 21.1782 39.0963 21.0573 39.0862C20.9363 39.076 20.8186 39.0418 20.711 38.9857C20.6033 38.9296 20.5079 38.8526 20.4303 38.7593C20.3527 38.6659 20.2945 38.5581 20.259 38.442C20.0985 37.917 20.43 36.747 20.862 36.606ZM20.0775 29.976C22.4048 29.3437 24.8058 29.0234 27.2175 29.0235C31.5585 29.0235 35.868 30.0735 39.6825 32.0625C39.951 32.1975 40.1475 32.4285 40.2375 32.7105C40.283 32.8529 40.2995 33.003 40.2861 33.1519C40.2727 33.3008 40.2297 33.4455 40.1595 33.5775C39.819 34.2435 39.42 34.692 39.1695 34.692C38.9868 34.6912 38.8068 34.647 38.6445 34.563C35.1183 32.722 31.1968 31.7675 27.219 31.782C25.0064 31.7776 22.8034 32.0727 20.67 32.6595C20.5277 32.6984 20.3791 32.7089 20.2327 32.6904C20.0863 32.6719 19.945 32.6247 19.8169 32.5516C19.6888 32.4784 19.5763 32.3808 19.4859 32.2642C19.3955 32.1476 19.3289 32.0143 19.29 31.872C19.122 31.239 19.5075 30.132 20.0775 29.976V29.976ZM19.875 25.647C19.7062 25.6903 19.5304 25.6998 19.3579 25.6748C19.1854 25.6499 19.0195 25.591 18.8699 25.5016C18.7203 25.4122 18.5898 25.2941 18.4861 25.154C18.3823 25.0139 18.3074 24.8547 18.2655 24.6855C18.081 23.9385 18.5475 23.0715 19.2255 22.9005C21.8408 22.2564 24.5241 21.9295 27.2175 21.927C32.3925 21.927 37.3515 23.091 41.9535 25.3875C42.2697 25.5447 42.5105 25.8211 42.623 26.1558C42.7355 26.4905 42.7105 26.8562 42.5535 27.1725C42.339 27.6045 41.874 28.0695 41.361 28.0695C41.1598 28.0688 40.9612 28.0242 40.779 27.939C36.5709 25.828 31.9254 24.7356 27.2175 24.75C24.765 24.75 22.2945 25.0515 19.875 25.647Z" fill="#545454"/>
</svg>
