<svg width="60" height="60" viewBox="0 0 60 60" fill="none" xmlns="http://www.w3.org/2000/svg">
<circle cx="30" cy="30" r="30" fill="white"/>
<path d="M29.9952 23.9972C26.69 23.9972 23.9927 26.6945 23.9927 29.9997C23.9927 33.3048 26.69 36.0021 29.9952 36.0021C33.3003 36.0021 35.9976 33.3048 35.9976 29.9997C35.9976 26.6945 33.3003 23.9972 29.9952 23.9972ZM47.998 29.9997C47.998 27.514 48.0205 25.0509 47.8809 22.5698C47.7413 19.6879 47.0839 17.1302 44.9765 15.0228C42.8646 12.9109 40.3114 12.258 37.4295 12.1184C34.9439 11.9788 32.4808 12.0013 29.9997 12.0013C27.514 12.0013 25.0509 11.9788 22.5698 12.1184C19.6879 12.258 17.1302 12.9154 15.0228 15.0228C12.9109 17.1347 12.258 19.6879 12.1184 22.5698C11.9788 25.0554 12.0013 27.5185 12.0013 29.9997C12.0013 32.4808 11.9788 34.9484 12.1184 37.4295C12.258 40.3114 12.9154 42.8691 15.0228 44.9765C17.1347 47.0884 19.6879 47.7413 22.5698 47.8809C25.0554 48.0205 27.5185 47.998 29.9997 47.998C32.4853 47.998 34.9484 48.0205 37.4295 47.8809C40.3114 47.7413 42.8691 47.0839 44.9765 44.9765C47.0884 42.8646 47.7413 40.3114 47.8809 37.4295C48.025 34.9484 47.998 32.4853 47.998 29.9997ZM29.9952 39.2352C24.8843 39.2352 20.7596 35.1105 20.7596 29.9997C20.7596 24.8888 24.8843 20.7641 29.9952 20.7641C35.106 20.7641 39.2307 24.8888 39.2307 29.9997C39.2307 35.1105 35.106 39.2352 29.9952 39.2352ZM39.609 22.5428C38.4157 22.5428 37.4521 21.5791 37.4521 20.3858C37.4521 19.1926 38.4157 18.2289 39.609 18.2289C40.8023 18.2289 41.7659 19.1926 41.7659 20.3858C41.7663 20.6692 41.7107 20.9498 41.6024 21.2117C41.4942 21.4735 41.3353 21.7115 41.1349 21.9118C40.9346 22.1122 40.6967 22.271 40.4348 22.3793C40.173 22.4876 39.8923 22.5431 39.609 22.5428Z" fill="#545454"/>
</svg>
