<svg width="91" height="90" viewBox="0 0 91 90" fill="none" xmlns="http://www.w3.org/2000/svg">
<path d="M35.0513 25.1622C34.7036 25.5091 34.4278 25.9212 34.2396 26.3748C34.0515 26.8285 33.9546 27.3148 33.9546 27.8059C33.9546 28.297 34.0515 28.7833 34.2396 29.237C34.4278 29.6906 34.7036 30.1027 35.0513 30.4497L49.6013 44.9997L35.0513 59.5496C34.3501 60.2508 33.9562 61.2018 33.9562 62.1934C33.9562 63.185 34.3501 64.136 35.0513 64.8372C35.7524 65.5383 36.7034 65.9322 37.695 65.9322C38.6866 65.9322 39.6376 65.5383 40.3388 64.8372L57.5513 47.6246C57.8989 47.2777 58.1747 46.8656 58.3629 46.412C58.5511 45.9583 58.6479 45.472 58.6479 44.9809C58.6479 44.4898 58.5511 44.0035 58.3629 43.5498C58.1747 43.0962 57.8989 42.6841 57.5513 42.3372L40.3388 25.1247C38.9138 23.6997 36.5138 23.6997 35.0513 25.1622Z" fill="#E5E5E5"/>
</svg>
