<svg width="90" height="90" viewBox="0 0 90 90" fill="none" xmlns="http://www.w3.org/2000/svg">
<path d="M55.0879 64.8378C55.4355 64.4909 55.7113 64.0788 55.8995 63.6252C56.0877 63.1715 56.1846 62.6852 56.1846 62.1941C56.1846 61.703 56.0877 61.2167 55.8995 60.763C55.7113 60.3094 55.4355 59.8973 55.0879 59.5503L40.5379 45.0004L55.0879 30.4504C55.7891 29.7492 56.183 28.7982 56.183 27.8066C56.183 26.815 55.7891 25.864 55.0879 25.1628C54.3867 24.4617 53.4358 24.0678 52.4442 24.0678C51.4526 24.0678 50.5016 24.4617 49.8004 25.1628L32.5879 42.3754C32.2403 42.7223 31.9645 43.1344 31.7763 43.588C31.5881 44.0417 31.4912 44.528 31.4912 45.0191C31.4912 45.5102 31.5881 45.9965 31.7763 46.4502C31.9645 46.9038 32.2403 47.3159 32.5879 47.6629L49.8004 64.8753C51.2254 66.3003 53.6254 66.3003 55.0879 64.8378Z" fill="#E6E6E6"/>
</svg>
